<svg xmlns="http://www.w3.org/2000/svg" viewBox="0 0 25.83 20.99"><defs><style>.cls-1{fill:#a6a7a7;}</style></defs><g id="レイヤー_2" data-name="レイヤー 2"><g id="icon"><path id="Logo" class="cls-1" d="M23.19,5.23c0,.22,0,.45,0,.68A15,15,0,0,1,8.12,21h0A15.06,15.06,0,0,1,0,18.61c.42.05.84.07,1.26.08a10.6,10.6,0,0,0,6.58-2.28,5.31,5.31,0,0,1-4.95-3.68,5.41,5.41,0,0,0,2.4-.09A5.3,5.3,0,0,1,1,7.45V7.38A5.25,5.25,0,0,0,3.44,8,5.29,5.29,0,0,1,1.8,1,15,15,0,0,0,12.72,6.5a5.3,5.3,0,0,1,9-4.83A10.47,10.47,0,0,0,25.12.38a5.4,5.4,0,0,1-2.33,2.94,10.74,10.74,0,0,0,3-.84A10.78,10.78,0,0,1,23.19,5.23Z"/></g></g></svg>