<svg xmlns="http://www.w3.org/2000/svg" viewBox="0 0 26.34 20.67"><defs><style>.cls-1{fill:#a6a7a7;}</style></defs><g id="レイヤー_2" data-name="レイヤー 2"><g id="icon"><path class="cls-1" d="M26.27,2.94a3.66,3.66,0,0,0-.75-1.59,3.33,3.33,0,0,0-.25-.28A3.66,3.66,0,0,0,22.68,0h-19A3.65,3.65,0,0,0,1.07,1.07a3.33,3.33,0,0,0-.25.28A3.66,3.66,0,0,0,.07,2.94,3.35,3.35,0,0,0,0,3.65V17a3.69,3.69,0,0,0,.3,1.45,3.54,3.54,0,0,0,.77,1.13,2.73,2.73,0,0,0,.25.23,3.61,3.61,0,0,0,2.33.84h19A3.62,3.62,0,0,0,25,19.83l.25-.23A3.54,3.54,0,0,0,26,18.47h0a3.72,3.72,0,0,0,.3-1.45V3.65A4.17,4.17,0,0,0,26.27,2.94ZM2.39,2.39a1.8,1.8,0,0,1,1.26-.52h19A1.81,1.81,0,0,1,24,2.39l.16.19-10,8.69a1.43,1.43,0,0,1-1,.36,1.47,1.47,0,0,1-1-.36l-10-8.69A.9.9,0,0,1,2.39,2.39ZM1.87,17V4.51l7.22,6.3L1.87,17.1ZM22.68,18.8h-19a1.75,1.75,0,0,1-.88-.23l7.61-6.63.71.61a3.16,3.16,0,0,0,4.16,0l.71-.61,7.61,6.63A1.76,1.76,0,0,1,22.68,18.8ZM24.47,17v.08l-7.22-6.29,7.22-6.3Z"/></g></g></svg>