<svg xmlns="http://www.w3.org/2000/svg" viewBox="0 0 281.18 31.18"><defs><style>.cls-1{fill:#231815;}</style></defs><g id="レイヤー_2" data-name="レイヤー 2"><g id="logo"><path class="cls-1" d="M192.13,9.12V5.31a25.18,25.18,0,0,0,3.7-.37,5.23,5.23,0,0,0,2.74-1.5,5,5,0,0,0,1.09-2,4.8,4.8,0,0,0,.21-1.14h4.67l.08,28.47h-5.73L198.82,9.1Z"/><path class="cls-1" d="M214.31,23.09q1.2-2.85,5.64-6a42,42,0,0,0,5-4A5.82,5.82,0,0,0,226.68,9a4.51,4.51,0,0,0-1-3,4.09,4.09,0,0,0-6.35.73,9.59,9.59,0,0,0-.62,3.49l-5.43,0a13.72,13.72,0,0,1,1.3-5.88Q216.8.08,222.53.06a10.12,10.12,0,0,1,7.2,2.48,8.69,8.69,0,0,1,2.69,6.62,9,9,0,0,1-1.87,5.62,18.87,18.87,0,0,1-4.07,3.65L224.24,20c-1.4,1-2.35,1.73-2.87,2.17a6.28,6.28,0,0,0-1.3,1.56l12.43,0v4.93L213,28.69a13.43,13.43,0,0,1,1.29-5.6"/><path class="cls-1" d="M236.68,23q1.19-2.85,5.64-6a41.58,41.58,0,0,0,5-4,5.85,5.85,0,0,0,1.74-4.09,4.57,4.57,0,0,0-1-3,3.53,3.53,0,0,0-2.87-1.19,3.49,3.49,0,0,0-3.47,1.91,9.48,9.48,0,0,0-.62,3.5h-5.44a13.85,13.85,0,0,1,1.3-5.87Q239.18,0,244.89,0a10.12,10.12,0,0,1,7.2,2.48,8.66,8.66,0,0,1,2.69,6.62,8.93,8.93,0,0,1-1.87,5.62,18.78,18.78,0,0,1-4.06,3.65L246.61,20c-1.4,1-2.36,1.73-2.88,2.17a6.51,6.51,0,0,0-1.3,1.56l12.43,0,0,4.93-19.5.05a13.44,13.44,0,0,1,1.3-5.6"/><path class="cls-1" d="M259.22,8.93V5.12a24.18,24.18,0,0,0,3.7-.36,5.2,5.2,0,0,0,2.74-1.5,5,5,0,0,0,1.09-2A5,5,0,0,0,267,.08l4.67,0,.08,28.47-5.73,0-.06-19.64Z"/><path class="cls-1" d="M4,4.48A11.89,11.89,0,0,1,12.87.88q7.23,0,10.59,4.76a10.43,10.43,0,0,1,2,5.4H19.4a8.13,8.13,0,0,0-1.49-3.14A6,6,0,0,0,13.12,6,5.92,5.92,0,0,0,8,8.72C6.79,10.5,6.18,13,6.18,16.25s.68,5.68,2,7.29a6.14,6.14,0,0,0,5,2.41,5.64,5.64,0,0,0,4.74-2.09,9.12,9.12,0,0,0,1.49-3.36l6,0a13.05,13.05,0,0,1-4,7.71,11.53,11.53,0,0,1-8.18,3q-6.18,0-9.72-4T0,16.17Q0,8.59,4,4.48"/><path class="cls-1" d="M47.72,27.66Q45,31,39.51,31c-3.68,0-6.43-1.09-8.24-3.32a12.38,12.38,0,0,1-2.73-8,12.4,12.4,0,0,1,2.69-8C33,9.36,35.77,8.22,39.44,8.21s6.43,1.11,8.24,3.37a12.5,12.5,0,0,1,2.73,8,12.39,12.39,0,0,1-2.69,8.06m-4.48-3.08a8.12,8.12,0,0,0,1.3-5,8.07,8.07,0,0,0-1.33-4.94,4.45,4.45,0,0,0-3.77-1.73,4.49,4.49,0,0,0-3.78,1.75,8,8,0,0,0-1.31,5,8.09,8.09,0,0,0,1.34,5,4.45,4.45,0,0,0,3.78,1.73,4.41,4.41,0,0,0,3.77-1.75"/><path class="cls-1" d="M71.65,10q2.1,1.73,2.12,5.75l0,14.42H68.07l0-13a6.13,6.13,0,0,0-.46-2.59A3.15,3.15,0,0,0,64.46,13a3.85,3.85,0,0,0-3.87,2.43,8.25,8.25,0,0,0-.54,3.26l0,11.58-5.59,0L54.43,8.9l5.42,0V12a9.65,9.65,0,0,1,2-2.38,7.15,7.15,0,0,1,4.36-1.31A8.21,8.21,0,0,1,71.65,10"/><path class="cls-1" d="M76.76,13V9h3l0-6h5.54V9h3.48v4l-3.47,0,0,11.3a2.55,2.55,0,0,0,.33,1.64,3.7,3.7,0,0,0,2,.32h.54l.56,0v4.18l-2.65.11c-2.65.09-4.45-.36-5.42-1.36a4.09,4.09,0,0,1-1-3l0-13.17Z"/><path class="cls-1" d="M100.84,17.11a9.2,9.2,0,0,0,2.24-.49,1.7,1.7,0,0,0,1.2-1.6,1.91,1.91,0,0,0-.93-1.81,5.94,5.94,0,0,0-2.72-.5,3.63,3.63,0,0,0-2.85,1,4.12,4.12,0,0,0-.78,2l-5.41,0a8.21,8.21,0,0,1,1.57-4.62q2.22-2.84,7.64-2.85a13.53,13.53,0,0,1,6.28,1.38c1.83.92,2.74,2.67,2.75,5.25l0,9.82c0,.68,0,1.5,0,2.47a3.2,3.2,0,0,0,.35,1.5,2,2,0,0,0,.82.64v.82l-6.08,0a6,6,0,0,1-.36-1.21c-.07-.39-.12-.82-.16-1.3a11.63,11.63,0,0,1-2.68,2.14,8.16,8.16,0,0,1-4.11,1.06,7.13,7.13,0,0,1-4.83-1.65,5.92,5.92,0,0,1-1.92-4.69,6.1,6.1,0,0,1,3-5.73,13.79,13.79,0,0,1,5-1.39Zm3.43,2.61a6.8,6.8,0,0,1-1.08.54,9.33,9.33,0,0,1-1.5.39l-1.28.23a8.37,8.37,0,0,0-2.57.78A2.52,2.52,0,0,0,96.53,24a2.5,2.5,0,0,0,.81,2.08,3.11,3.11,0,0,0,2,.63,5.89,5.89,0,0,0,3.38-1.07c1-.71,1.56-2,1.6-3.87Z"/><path class="cls-1" d="M120.45,6.12l-5.67,0,0-5.16,5.68,0Zm-5.67,2.57h5.68l.06,21.4h-5.68Z"/><path class="cls-1" d="M143.14,9.84q2.1,1.74,2.12,5.76l0,14.41h-5.74l0-13a6.06,6.06,0,0,0-.46-2.59A3.16,3.16,0,0,0,136,12.77a3.86,3.86,0,0,0-3.87,2.43,8.29,8.29,0,0,0-.54,3.26l0,11.59H126L125.92,8.7l5.41,0v3.13a9.54,9.54,0,0,1,2-2.39,7.06,7.06,0,0,1,4.36-1.3,8.22,8.22,0,0,1,5.41,1.72"/><path class="cls-1" d="M164.39,9a8.63,8.63,0,0,1,3.7,3.15,10.5,10.5,0,0,1,1.72,4.42,28.1,28.1,0,0,1,.2,4.25l-15.59.05a5.15,5.15,0,0,0,2.25,4.51,5.69,5.69,0,0,0,3.09.79,4.69,4.69,0,0,0,3.1-1A4.74,4.74,0,0,0,164,23.7l5.71,0a7,7,0,0,1-2.06,3.87q-2.86,3.14-8,3.15a11.61,11.61,0,0,1-7.55-2.62c-2.18-1.74-3.28-4.6-3.29-8.55q0-5.57,2.93-8.54a10.34,10.34,0,0,1,7.64-3,12.35,12.35,0,0,1,5,1M156,13.85a5.78,5.78,0,0,0-1.48,3.31l9.64,0a4.7,4.7,0,0,0-1.5-3.37,4.9,4.9,0,0,0-3.32-1.15A4.46,4.46,0,0,0,156,13.85"/><path class="cls-1" d="M184.69,8l.48,0,0,5.73c-.35,0-.67-.06-.94-.08h-.67q-3.37,0-4.53,2.21a8.49,8.49,0,0,0-.64,3.81l0,10.23H172.8l-.06-21.4h5.35v3.73a11.69,11.69,0,0,1,2.25-2.93A6.16,6.16,0,0,1,184.43,8h.26"/><path class="cls-1" d="M281.18,25.59a3,3,0,0,1-.42,1.56,3,3,0,0,1-1.14,1.15,3.11,3.11,0,0,1-3.12,0,3.14,3.14,0,0,1-1.15-1.14,3.06,3.06,0,0,1-.42-1.55,3.11,3.11,0,0,1,.42-1.57,3,3,0,0,1,1.15-1.15,3,3,0,0,1,1.56-.42,3.13,3.13,0,0,1,1.56.41,3.16,3.16,0,0,1,1.56,2.71Zm-.43,0a2.73,2.73,0,0,0-1.35-2.34,2.58,2.58,0,0,0-1.33-.36,2.68,2.68,0,0,0-1.35.36,2.57,2.57,0,0,0-1,1,2.68,2.68,0,0,0,1,3.68,2.69,2.69,0,0,0,3.67-1A2.62,2.62,0,0,0,280.75,25.59Zm-4-1.82h1.5a1.94,1.94,0,0,1,.75.1.85.85,0,0,1,.38.35,1,1,0,0,1,.14.56,1,1,0,0,1-.1.47,1,1,0,0,1-.34.32.7.7,0,0,1,.32.28,1.14,1.14,0,0,1,.09.54v.41a.84.84,0,0,0,.12.47l.06.1h-.63a2.54,2.54,0,0,1-.09-.53l0-.44a.81.81,0,0,0-.08-.35.39.39,0,0,0-.17-.14,1.53,1.53,0,0,0-.45,0h-.9v1.5h-.57Zm.57.52v1.06h.88a1.16,1.16,0,0,0,.55-.09.49.49,0,0,0,.21-.44.51.51,0,0,0-.15-.41,1,1,0,0,0-.57-.12Z"/></g></g></svg>