<svg xmlns="http://www.w3.org/2000/svg" viewBox="0 0 191.01 88.07"><defs><style>.cls-1{fill:#838383;}</style></defs><g id="レイヤー_2" data-name="レイヤー 2"><g id="logo"><path class="cls-1" d="M.14,33.37a6.76,6.76,0,0,1,0,1.43c-.12,1,.14,1.89.07,2.68H9.56a11.13,11.13,0,0,0-.07-1.87V33.37Z"/><path class="cls-1" d="M132.3,19.94c0,.19,0,.38,0,.58h8.63a4.17,4.17,0,0,0,.06-1.47,20,20,0,0,0-.15-2.72c-.22-.88.44-1.91.07-2.79s.37-1.62,0-2.73.22-1.76-.07-2.94.15-2.72.07-5.44A2.07,2.07,0,0,0,138.77.07h-.15c-1,0-2.5-.07-3.75-.07-1.62,0-2.65.74-2.65,2.28,0,1.1,0,1.91.08,3.09-.08.88.07,2.28,0,2.94-.08,1-.08,2-.08,2.95s0,2,.08,2.87a13.37,13.37,0,0,0-.22,2.5C132.08,17.8,132.22,19,132.3,19.94Z"/><path class="cls-1" d="M.15,25.16a1.87,1.87,0,0,0-.08.66c0,.81.45,1.7.08,2.5a1.86,1.86,0,0,0-.15.89s0,.08,0,.12H9.49a36.5,36.5,0,0,0,0-4.68v-.09H.27A2.55,2.55,0,0,1,.15,25.16Z"/><path class="cls-1" d="M0,10c0,.89.22,1.77.15,2.29a4.43,4.43,0,0,0-.08,1c0,.73.08,1.47.08,2.2a23.69,23.69,0,0,1,0,3.17c0,.74,0,1.28,0,1.83H9.52a13.06,13.06,0,0,0,0-1.39,22.4,22.4,0,0,1,0-5.45c.22-1.69-.29-3.09,0-5.51.15-1.84.07-2.73.07-4.93S8.68.44,6.92.15A6.21,6.21,0,0,0,5.67.07C4.86.07,3.9.15,3.16.15H2.58A2.45,2.45,0,0,0,0,2.79c0,1.4.44,1.84.15,3.1a2.5,2.5,0,0,0-.08.73c0,1,.45,1.47.08,2.5A3.45,3.45,0,0,0,0,10Z"/><path class="cls-1" d="M132.41,24.56a10.28,10.28,0,0,1-.11,1.19c.09,1.19.17,2.37.15,3.58h8.48c0-1.17,0-2.36,0-4.32a3.58,3.58,0,0,1,0-.45Z"/><path class="cls-1" d="M132.15,36.12a6.67,6.67,0,0,0,.15,1.25.41.41,0,0,0,0,.11H141v-1.8a18.46,18.46,0,0,1-.14-2.31h-8.51C132.27,34.29,132.15,35.24,132.15,36.12Z"/><path class="cls-1" d="M190.71,31.56a18.37,18.37,0,0,0-.81-3.68c-.73-.95-.8-1.91-1.39-3.38-.44-.74-1.4-2-1.92-3a6.82,6.82,0,0,0-2.42-2.57c-1-.44-2.28-1.55-3-1.92a24.18,24.18,0,0,1-3.53-1.25l-4-.44a5.31,5.31,0,0,1-1,.15c-.44,0-.88-.07-1.39-.07-.22.07-.52.07-.81.14-1.47.59-2.21.3-3.17.89-1.1.22-2,1.1-3,1.39-.66.74-2.21,1.25-2.65,1.92A4.66,4.66,0,0,1,160,21.48c-.59.74-1,1.55-1.32,1.91a9.47,9.47,0,0,0-1.18,2.14c-.59.51-.66,1.69-.88,2.21-.22,1.32-1.25,3.16-1.11,4.56a13.64,13.64,0,0,0-.51,3.38,7.42,7.42,0,0,0,.15,1.32c.07.89-.08,1.7-.08,2.51v.22a2.69,2.69,0,0,0,.37,1.54c.37,1.77.66,2.5,1,4s1.25,2.58,1.54,3.54a6.08,6.08,0,0,0,2.21,3.09,4.85,4.85,0,0,0,2.72,2.42c1.33.81,1.84,1.62,3.31,1.92.81.73,2.65.81,3.83,1.17a24.57,24.57,0,0,0,4.34.37c.37,0,.81.08,1.32.08a8,8,0,0,0,2.87-.45c1.25-.29,2.58-1,3.83-1.25,1.32-.66,1.84-1.54,3.38-2.2.59-.3.52-.74,1.47-1.4A8.38,8.38,0,0,0,189,50.62a5.91,5.91,0,0,0,1.18-3.76c0-1-.74-1.69-2.06-1.69a19.26,19.26,0,0,0-2.95,0,2.47,2.47,0,0,0-3,1.55c-.52.51-1.11,1.54-1.4,1.76a7.92,7.92,0,0,1-1.84,1.18,11.41,11.41,0,0,1-4.78,1l-1.33-.07c-2-.37-3.09-1.26-3.9-1.4-1.32-.22-1.25-1.33-2.06-1.77s-.73-1.54-1.54-2.35a4,4,0,0,1-1-2.5,4.52,4.52,0,0,1-.29-2.73,1.7,1.7,0,0,1,1.91-1.39,26.56,26.56,0,0,1,4.86.07c.73,0,2-.07,2.94,0a5.74,5.74,0,0,1,2.94,0c.88.22,1.62-.29,2.94,0,1,.22,1.62-.37,3,0,1,.29,2.13-.29,3,0,1.25.37,2.14-.07,3.17,0,1.4.15,2.28-.74,2.28-2.65v-.44C190.86,33.84,190.86,32.74,190.71,31.56ZM182,30.9a1.48,1.48,0,0,1-1.32,1.1c-1.62,0-2.06.3-3.53-.07-1.4.22-2.58-.15-4,0a36,36,0,0,1-3.89,0,18.07,18.07,0,0,1-3.46.07,1.62,1.62,0,0,1-1.47-1.69c-.08-.74.22-1,.58-2a4.11,4.11,0,0,1,1.25-2.2c.67-.59.81-1.11,1.48-1.55.51-.37,1.1-1.1,1.69-1.25a8.15,8.15,0,0,1,4.12-1,8.06,8.06,0,0,1,4.12,1,7.75,7.75,0,0,1,2.94,3,3.59,3.59,0,0,1,.88,1.84A5.29,5.29,0,0,1,182,30.9Z"/><path class="cls-1" d="M31.12,48.56c-2.35.14-3.38-.08-4.71,0-2,.14-3.23-.08-4.93.07s-2.42-.07-4.71,0a40.34,40.34,0,0,1-4.19-.07,3,3,0,0,1-3-3.24,25.35,25.35,0,0,0,0-3.8H.11A8.09,8.09,0,0,0,0,42.67a9,9,0,0,0,.15,1.69,9.8,9.8,0,0,1-.08,2.58,1.34,1.34,0,0,0,.08.59,3.31,3.31,0,0,0-.15.88,12.84,12.84,0,0,1,.15,2.35A3.39,3.39,0,0,0,0,51.94v1.77c.07,1.47,1,2.86,2.28,2.86.15,0,.22-.07.37-.07a9.54,9.54,0,0,0,2.13.15H7.65a10.28,10.28,0,0,0,2.14-.15c.66,0,1.47.07,2.28.07a8,8,0,0,0,1.25-.07,15.36,15.36,0,0,0,2.06.15,5.17,5.17,0,0,0,1.47-.15c.73,0,1.69.15,2.5.15a2.31,2.31,0,0,0,1-.15,29.44,29.44,0,0,1,3.53,0,15.8,15.8,0,0,1,2.72.07c.3,0,.59-.07.89-.07a16.17,16.17,0,0,0,2,.15,15.72,15.72,0,0,0,1.62-.15h.44a1.93,1.93,0,0,0,2-2.13V51.2a2.59,2.59,0,0,0,.07-.73C33.62,49.29,32.89,48.41,31.12,48.56Z"/><path class="cls-1" d="M87.48,49.14c-1.39-.22-2.94.45-4.48.59a4.92,4.92,0,0,1-2.73-.59,2.21,2.21,0,0,1-1.17-2,6.65,6.65,0,0,1-.3-3.24c.08-1.1-.44-1.69,0-2.94s-.15-2.43.08-3.83c.22-1.62-.45-2.65,0-3.82s-.45-2.28.07-3.83a15.18,15.18,0,0,0,.15-4.19c0-1.33,1.39-2.14,3.09-2.14l3.38.08c1.69-.22,2.58-1,2.43-2.5.07-.67,0-1.11.07-1.84,0-1.84-.81-2.14-2.43-2.5a19.92,19.92,0,0,1-4.12-.08C80.2,16.48,79.46,15,79.46,14a24.5,24.5,0,0,0-.07-3.24c0-.88.15-2.43.07-3.38A2.34,2.34,0,0,0,77,4.86H73.65c-1.62.07-2.72.51-2.57,2.42-.08,1,0,2.65-.08,3.46a21.07,21.07,0,0,1,.08,2.94c0,1.33-.66,2.95-2.43,2.65-.59-.07-1,.22-1.69,0a2,2,0,0,0-2.43,2.28v2.06c0,1.47.66,2.5,2.21,2.58a10.34,10.34,0,0,1,1.62,0c1.54,0,2.06,1.69,2.13,2.87.07,1.62-.15,2.06-.07,3.16.07,1.4-.15,2.65-.15,3.83,0,1.54-.15,2.87-.08,3.82.23,1.33-.36,2.72-.14,3.75.29,1.4-.15,2.87-.08,4.42a14.21,14.21,0,0,0,.08,3.53A9.49,9.49,0,0,0,70.86,52a7.86,7.86,0,0,0,1.61,2.51,6,6,0,0,0,2.36,1.61,4.06,4.06,0,0,0,2.8,1,2.79,2.79,0,0,0,1.25.29c.51,0,1-.07,1.39-.07.08,0,.22.07.3.07h2.21a11.25,11.25,0,0,0,1.32-.22,7.83,7.83,0,0,0,3.46-1A2.2,2.2,0,0,0,89,54.07a1.66,1.66,0,0,0-.08-.58c0-.15-.07-.3-.07-.45,0-.59.15-1.47.15-2.2v-.45C89,49.66,88.22,49.22,87.48,49.14Z"/><path class="cls-1" d="M148.48,51.87c0-1.33-.59-2.14-1.76-2.21-.89-.07-1.33.07-2.51.07a6.58,6.58,0,0,1-2.64-.51c-.74-.59-.59-1.91-.59-3.09V41.52h-8.87a14.26,14.26,0,0,0,.19,1.66c0,1.77-.08,2.8-.08,4.27v1.18a19.31,19.31,0,0,0,.44,4,5.75,5.75,0,0,0,1.92,3.09,9.71,9.71,0,0,0,3.53,1.39,10.72,10.72,0,0,0,2.57.22h1.25c.59,0,1.33.08,2.14.08a7.28,7.28,0,0,0,2.87-.44c.81-.15,1.54-.52,1.54-2.28v-.22a1.73,1.73,0,0,0,.07-.59c0-.44-.07-.89-.07-1.55Z"/><path class="cls-1" d="M119.42,49.14c-1.4-.22-3,.45-4.49.59a4.86,4.86,0,0,1-2.72-.59,2.22,2.22,0,0,1-1.18-2,6.65,6.65,0,0,1-.29-3.24c.07-1.1-.45-1.69,0-2.94s-.15-2.43.07-3.83c.22-1.62-.44-2.65,0-3.82s-.44-2.28.07-3.83a15.18,15.18,0,0,0,.15-4.19c0-1.33,1.4-2.14,3.09-2.14l3.38.08c1.7-.22,2.58-1,2.43-2.5.07-.67,0-1.11.07-1.84,0-1.84-.8-2.14-2.42-2.5a19.9,19.9,0,0,1-4.12-.08c-1.33.15-2.06-1.32-2.06-2.35a24.7,24.7,0,0,0-.08-3.24c0-.88.15-2.43.08-3.38a2.35,2.35,0,0,0-2.5-2.5h-3.31c-1.62.07-2.73.51-2.58,2.42-.07,1,0,2.65-.07,3.46a22.4,22.4,0,0,1,.07,2.94c0,1.33-.66,2.95-2.43,2.65-.59-.07-1,.22-1.69,0a2,2,0,0,0-2.43,2.28v2.06c0,1.47.66,2.5,2.21,2.58a10.34,10.34,0,0,1,1.62,0c1.54,0,2.06,1.69,2.13,2.87.08,1.62-.15,2.06-.07,3.16.07,1.4-.15,2.65-.15,3.83,0,1.54-.15,2.87-.07,3.82.22,1.33-.37,2.72-.15,3.75.29,1.4-.15,2.87-.07,4.42a13.76,13.76,0,0,0,.07,3.53,9.49,9.49,0,0,0,.81,3.38c.22,1,1.18,1.84,1.62,2.51a5.94,5.94,0,0,0,2.35,1.61,4.06,4.06,0,0,0,2.8,1,2.79,2.79,0,0,0,1.25.29c.51,0,1-.07,1.4-.07.07,0,.22.07.29.07h2.21a10.61,10.61,0,0,0,1.32-.22,7.8,7.8,0,0,0,3.46-1A2.2,2.2,0,0,0,121,54.07a1.89,1.89,0,0,0-.07-.58c0-.15-.08-.3-.08-.45,0-.59.15-1.47.15-2.2v-.45C121,49.66,120.15,49.22,119.42,49.14Z"/><path class="cls-1" d="M53.42,5.37a4.56,4.56,0,0,1-.15-.59,6.45,6.45,0,0,1,0-2.06c0-1.69-.66-2.13-2.5-2.5C50,.15,49.37.07,48.64.07s-1.55.08-2.29.15h-.44a1.83,1.83,0,0,0-1.91,2v.14a4.65,4.65,0,0,1,.07,2,1.91,1.91,0,0,0-.07.59c0,.44.15.66,0,1a1,1,0,0,0-.15.58c0,.45.22.81.15,1.11.15,1.76.44,2.42,2.35,2.06a14.93,14.93,0,0,0,1.77,0c.81-.08,1.91.07,2.65,0,1.76.29,2.5-.3,2.5-1.84a2.5,2.5,0,0,0,.15-.88.9.9,0,0,0-.08-.45V6.25C53.34,6,53.42,5.81,53.42,5.37Z"/><path class="cls-1" d="M52.83,18.76c.22-1.91-.59-2.58-2.5-2.5a27.65,27.65,0,0,0-3.53,0c-2.14,0-2.29,1.18-2.51,2.5a23.19,23.19,0,0,0,0,4.41c-.22.89.37,1.77,0,2.51s.15,1.76,0,2.28c-.29,1.17.22,1.54,0,2.42s.15,1.7,0,2.14c-.44,1.25.22,2.35-.07,3.9a4.74,4.74,0,0,1,.15,2.5c-.3,1.18.22,2.35,0,2.87-.44,1,.14,2.35-.15,3.38a43.41,43.41,0,0,0,0,4.42c.15,1.83,0,2.79.07,4.48A2.21,2.21,0,0,0,46.8,56.5c.58,0,1.47-.07,2.35-.07a6.68,6.68,0,0,1,1.18.07c1.69-.15,2.5-.81,2.57-2.43v-8.9c-.22-1.4.15-3,0-4.34.22-1.25-.07-1.91,0-4.41.08-1.33-.07-2.8,0-4.42s-.29-2.87,0-4.41c-.15-1.25.3-2.87,0-4.42A21.4,21.4,0,0,0,52.83,18.76Z"/><path class="cls-1" d="M27.12,83.8a1.36,1.36,0,0,0,1.35,1.37A1.15,1.15,0,0,0,29.77,84c0-1-1.28-1.26-2.35-1.63-2.2-.79-3.42-1.81-3.42-4a4.36,4.36,0,0,1,4.45-4.23c2.89,0,4.26,1.85,4.44,4.27h-3a1.36,1.36,0,0,0-2.72-.09c0,1,1.2,1.16,2.31,1.48,2.33.7,3.42,2,3.42,4a4.33,4.33,0,0,1-4.42,4.23A4.15,4.15,0,0,1,24,83.8Z"/><path class="cls-1" d="M35.63,74.57h8.64V77.4H38.83v2.35h5v2.79h-5v2.35h5.68v2.74H35.63Z"/><path class="cls-1" d="M47,74.57h3.21V84.89h5.68v2.74H47Z"/><path class="cls-1" d="M57.8,74.57h8.64V77.4H61v2.35h5v2.79H61v2.35h5.68v2.74H57.8Z"/><path class="cls-1" d="M75.73,74.13a7.28,7.28,0,0,1,5.6,2.4l-2.2,2.09a4.86,4.86,0,0,0-3.4-1.46,3.94,3.94,0,0,0,0,7.88,4.86,4.86,0,0,0,3.4-1.46l2.13,2.09a7.41,7.41,0,0,1-5.53,2.4,7,7,0,1,1,0-13.94Z"/><path class="cls-1" d="M85.87,77.4H83V74.57h9.1V77.4h-3V87.63H85.87Z"/><path class="cls-1" d="M93.93,74.57h8.64V77.4H97.13v2.35h5v2.79h-5v2.35h5.68v2.74H93.93Z"/><path class="cls-1" d="M105.3,74.57h4.55a6.54,6.54,0,1,1,0,13.06H105.3Zm4.49,10.14a3.63,3.63,0,0,0,0-7.25H108.5v7.25Z"/><path class="cls-1" d="M131.48,78.36l-1.09,1.06L129,77.81,132,74.57h2.67V87.63h-3.22Z"/><path class="cls-1" d="M136.61,87.28l3.79-4a4.67,4.67,0,0,1-3.07-4.31,5,5,0,0,1,10.08,0,4.74,4.74,0,0,1-1.54,3.49l-2.36,2.37h3.9v2.85h-10.8Zm7.6-8.36a1.76,1.76,0,0,0-1.81-1.76,1.78,1.78,0,1,0,0,3.55A1.77,1.77,0,0,0,144.21,78.92Z"/><path class="cls-1" d="M149,87.28l3.79-4a4.66,4.66,0,0,1-3.07-4.31,5,5,0,0,1,10.08,0,4.71,4.71,0,0,1-1.55,3.49l-2.35,2.37h3.9v2.85H149Zm7.6-8.36a1.77,1.77,0,0,0-1.81-1.76,1.78,1.78,0,1,0,0,3.55A1.78,1.78,0,0,0,156.61,78.92Z"/><path class="cls-1" d="M163.78,78.36l-1.09,1.06-1.41-1.61,3-3.24H167V87.63h-3.22Z"/></g></g></svg>