<svg xmlns="http://www.w3.org/2000/svg" viewBox="0 0 105.23 139.83"><defs><style>.cls-1{fill:#231815;}.cls-2{fill:#fff;}</style></defs><g id="レイヤー_2" data-name="レイヤー 2"><g id="logo"><circle class="cls-1" cx="52.62" cy="39.66" r="39.66"/><path class="cls-2" d="M46.88,37.27l14-14.88c2.53-2.67,4.77-5,4.77-8.49a6.75,6.75,0,0,0-6.92-6.53c-4.19,0-7.2,2.76-7.25,7H47.69a5.38,5.38,0,0,1,0-.72c0-5.77,5.25-10.06,11.11-10.06,6.11,0,11,4.72,11,10.3,0,4.34-2.62,7.63-5.72,10.83L57.37,31.5c-1.19,1.24-2,2-2,2h14.4v3.82Z"/><rect class="cls-2" x="33.78" y="14.18" width="3.58" height="23.16"/><path class="cls-2" d="M69.65,43,55.57,57.93c-2.53,2.68-4.79,5-4.79,8.52A6.79,6.79,0,0,0,57.73,73C61.94,73,65,70.24,65,66h3.83a7,7,0,0,1,0,.72c0,5.79-5.26,10.1-11.15,10.1-6.13,0-11-4.74-11-10.34,0-4.35,2.63-7.66,5.74-10.87l6.66-6.84c1.19-1.25,2-2,2-2H46.67V43Z"/><rect class="cls-2" x="33.78" y="42.3" width="3.58" height="23.16"/><path class="cls-1" d="M26.68,103.57v6.89H25v-6.89H23.35v-1.12H25v-2.7h1.71v2.7h1.6v1.12Z"/><path class="cls-1" d="M41.47,110.53h-1.3l-2.23-5.69-2.23,5.69H34.42l-3.34-8.08h1.67l2.33,6,2.23-6H38.6l2.23,6,2.33-6h1.66Z"/><path class="cls-1" d="M54.64,106.23H48.89a2.73,2.73,0,0,0,3,3.19,4.18,4.18,0,0,0,2.7-1.13v1.37a4.77,4.77,0,0,1-3.2,1.1,4.06,4.06,0,0,1-4.22-4.32,4,4,0,0,1,4-4.3,3.38,3.38,0,0,1,3.57,3.22A3.72,3.72,0,0,1,54.64,106.23Zm-3.43-2.84A2.17,2.17,0,0,0,49,105.1h4a1,1,0,0,0,0-.19C53.09,104.14,52.46,103.39,51.21,103.39Z"/><path class="cls-1" d="M58.71,110.46V96.36h1.71v14.1Z"/><path class="cls-1" d="M68.4,110.53H67.11l-3.59-8.08h1.69l2.56,6,2.54-6H72Z"/><path class="cls-1" d="M81.77,106.23H76a2.73,2.73,0,0,0,3,3.19,4.18,4.18,0,0,0,2.7-1.13v1.37a4.77,4.77,0,0,1-3.2,1.1,4.06,4.06,0,0,1-4.22-4.32,4,4,0,0,1,4-4.3,3.38,3.38,0,0,1,3.57,3.22A3.72,3.72,0,0,1,81.77,106.23Zm-3.43-2.84a2.18,2.18,0,0,0-2.18,1.71h4a1,1,0,0,0,0-.19C80.22,104.14,79.59,103.39,78.34,103.39Z"/><path class="cls-1" d="M3.33,128.37v6.88H1.62v-6.88H0v-1.13H1.62v-2.7H3.33v2.7h1.6v1.13Z"/><path class="cls-1" d="M18.12,135.32H16.83l-2.23-5.69-2.23,5.69h-1.3l-3.33-8.08H9.41l2.32,6,2.23-6h1.29l2.24,6,2.32-6h1.67Z"/><path class="cls-1" d="M31.3,131H25.54a2.74,2.74,0,0,0,3,3.2,4.23,4.23,0,0,0,2.7-1.13v1.36a4.76,4.76,0,0,1-3.19,1.1,4.32,4.32,0,0,1-.24-8.62,3.38,3.38,0,0,1,3.57,3.22A3.7,3.7,0,0,1,31.3,131Zm-3.43-2.84a2.19,2.19,0,0,0-2.19,1.71h4a1,1,0,0,0,0-.18C29.74,128.93,29.11,128.18,27.87,128.18Z"/><path class="cls-1" d="M41.53,135.25v-4.72c0-1.53-.64-2.21-1.86-2.21a2.66,2.66,0,0,0-2.61,2.35v4.58H35.35v-8h1.52l.12,1.38a4,4,0,0,1,3.24-1.69c2.16,0,3,1.51,3,3.5v4.82Z"/><path class="cls-1" d="M49.84,128.37v6.88H48.12v-6.88H46.5v-1.13h1.62v-2.7h1.72v2.7h1.6v1.13Z"/><path class="cls-1" d="M57.15,139.83H55.44l2.18-5-3.4-7.63h1.69l2.56,6,2.54-6H62.7Z"/><path class="cls-1" d="M65.1,129.78h4.74v1.31H65.1Z"/><path class="cls-1" d="M77.67,135.6a4.36,4.36,0,1,1,4.63-4.37A4.49,4.49,0,0,1,77.67,135.6Zm0-7.37a3,3,0,1,0,2.91,3A2.86,2.86,0,0,0,77.67,128.23Z"/><path class="cls-1" d="M92.19,135.25v-4.72c0-1.53-.64-2.21-1.86-2.21a2.65,2.65,0,0,0-2.6,2.35v4.58H86v-8h1.53l.12,1.38a4,4,0,0,1,3.24-1.69c2.16,0,3,1.51,3,3.5v4.82Z"/><path class="cls-1" d="M105.12,131H99.36a2.74,2.74,0,0,0,3,3.2,4.23,4.23,0,0,0,2.7-1.13v1.36a4.76,4.76,0,0,1-3.19,1.1,4.32,4.32,0,0,1-.24-8.62,3.38,3.38,0,0,1,3.57,3.22A3.7,3.7,0,0,1,105.12,131Zm-3.43-2.84a2.19,2.19,0,0,0-2.19,1.71h4a.65.65,0,0,0,0-.18C103.57,128.93,102.93,128.18,101.69,128.18Z"/></g></g></svg>