<svg xmlns="http://www.w3.org/2000/svg" viewBox="0 0 143.29 66.07"><g id="レイヤー_2" data-name="レイヤー 2"><g id="logo"><path d="M.11,25a5.45,5.45,0,0,1,0,1.07c-.09.74.1,1.42.05,2h7a9,9,0,0,0,0-1.41V25Z"/><path d="M99.25,15c0,.14,0,.29,0,.44h6.48a3.12,3.12,0,0,0,0-1.11,14.12,14.12,0,0,0-.11-2c-.17-.66.33-1.43,0-2.1s.28-1.21,0-2,.17-1.32,0-2.2.11-2.05,0-4.09A1.55,1.55,0,0,0,104.1.05H104c-.77,0-1.88,0-2.81,0-1.22,0-2,.55-2,1.71,0,.83,0,1.44.06,2.32-.06.66,0,1.71,0,2.21-.06.71-.06,1.49-.06,2.2s0,1.49.06,2.16a9.43,9.43,0,0,0-.17,1.87C99.08,13.36,99.19,14.24,99.25,15Z"/><path d="M.11,18.87a1.73,1.73,0,0,0,0,.5c0,.61.33,1.27.05,1.88a1.4,1.4,0,0,0-.11.66S0,22,0,22H7.12a27.37,27.37,0,0,0,0-3.51v-.07H.2A1.8,1.8,0,0,1,.11,18.87Z"/><path d="M0,7.51c0,.66.17,1.32.11,1.71a3.94,3.94,0,0,0,0,.77c0,.55.05,1.1.05,1.65A17,17,0,0,1,.11,14c0,.56,0,1,0,1.38h7a9.24,9.24,0,0,0,0-1.05,16.82,16.82,0,0,1,0-4.09C7.29,9,6.9,8,7.12,6.13c.11-1.38.06-2,.06-3.7S6.51.33,5.19.11A4.7,4.7,0,0,0,4.25.05c-.61,0-1.32.06-1.88.06H1.93A1.84,1.84,0,0,0,0,2.1c0,1,.33,1.38.11,2.31A2.36,2.36,0,0,0,.06,5c0,.71.33,1.1.05,1.87A3.12,3.12,0,0,0,0,7.51Z"/><path d="M99.33,18.42a6,6,0,0,1-.08.9c.06.89.12,1.78.11,2.68h6.36c0-.88,0-1.77,0-3.24,0-.11,0-.22,0-.34Z"/><path d="M99.13,27.1a5,5,0,0,0,.12.94.19.19,0,0,0,0,.08h6.52V26.77a15.05,15.05,0,0,1-.11-1.74H99.27C99.23,25.73,99.13,26.44,99.13,27.1Z"/><path d="M143.07,23.68a13.81,13.81,0,0,0-.61-2.76,10.18,10.18,0,0,1-1.05-2.54c-.33-.55-1-1.49-1.43-2.26a5.24,5.24,0,0,0-1.82-1.94c-.72-.33-1.71-1.16-2.27-1.43a18.81,18.81,0,0,1-2.65-.94l-3-.33a4.75,4.75,0,0,1-.77.11c-.33,0-.66-.06-1.05-.06a6,6,0,0,1-.6.11c-1.11.45-1.66.23-2.38.67-.83.16-1.49.82-2.26,1-.5.55-1.66.93-2,1.43A3.52,3.52,0,0,1,120,16.12c-.44.55-.72,1.15-1,1.43a7,7,0,0,0-.89,1.6c-.44.39-.49,1.27-.66,1.66-.17,1-.94,2.37-.83,3.42a10.15,10.15,0,0,0-.38,2.54,5.56,5.56,0,0,0,.11,1c0,.66-.06,1.27-.06,1.88v.16a2,2,0,0,0,.28,1.16c.27,1.33.49,1.88.71,3a22.53,22.53,0,0,0,1.16,2.65,4.6,4.6,0,0,0,1.66,2.32,3.65,3.65,0,0,0,2,1.82c1,.61,1.38,1.21,2.48,1.43.61.56,2,.61,2.87.89a19.13,19.13,0,0,0,3.26.27c.28,0,.61.06,1,.06a6.18,6.18,0,0,0,2.16-.33c.94-.22,1.93-.78,2.87-.94,1-.5,1.38-1.16,2.54-1.66.44-.22.38-.55,1.1-1A6,6,0,0,0,141.74,38a4.35,4.35,0,0,0,.89-2.81c0-.78-.56-1.27-1.55-1.27a13.51,13.51,0,0,0-2.21,0,1.86,1.86,0,0,0-2.26,1.16c-.39.38-.83,1.15-1.05,1.32a5.82,5.82,0,0,1-1.38.88,8.47,8.47,0,0,1-3.59.78l-1-.06a21.7,21.7,0,0,1-2.92-1c-1-.16-.94-1-1.55-1.32s-.55-1.16-1.16-1.77a3,3,0,0,1-.72-1.88,3.43,3.43,0,0,1-.22-2,1.29,1.29,0,0,1,1.44-1.05,20.34,20.34,0,0,1,3.64.06c.55,0,1.49-.06,2.21,0a4.25,4.25,0,0,1,2.21,0c.66.16,1.21-.22,2.2,0,.78.16,1.22-.28,2.21,0,.77.22,1.6-.22,2.26,0a8.6,8.6,0,0,0,2.38,0c1,.11,1.71-.55,1.71-2V26.6C143.18,25.39,143.18,24.56,143.07,23.68Zm-6.51-.5a1.15,1.15,0,0,1-1,.83,8.35,8.35,0,0,1-2.65-.06c-1,.17-1.93-.11-3,0A23.69,23.69,0,0,1,127,24a14,14,0,0,1-2.6.06,1.23,1.23,0,0,1-1.1-1.27c-.06-.55.17-.77.44-1.49a3,3,0,0,1,.94-1.66c.5-.44.61-.83,1.1-1.16s.83-.82,1.27-.93a6,6,0,0,1,3.09-.72,5.82,5.82,0,0,1,5.3,3,2.66,2.66,0,0,1,.66,1.38A4,4,0,0,1,136.56,23.18Z"/><path d="M23.35,36.43c-1.77.11-2.54-.06-3.54,0-1.49.11-2.42-.06-3.69,0a34.52,34.52,0,0,1-3.54,0,28.91,28.91,0,0,1-3.14,0A2.28,2.28,0,0,1,7.18,34a19.49,19.49,0,0,0,0-2.86H.08A7.21,7.21,0,0,0,0,32a7.76,7.76,0,0,0,.11,1.27,7.13,7.13,0,0,1,0,1.93,1.16,1.16,0,0,0,.05.44,3,3,0,0,0-.11.66,9.3,9.3,0,0,1,.11,1.77A2.59,2.59,0,0,0,0,39v1.33c.06,1.1.77,2.15,1.71,2.15.11,0,.17,0,.28,0a7.32,7.32,0,0,0,1.6.11H5.74a7.83,7.83,0,0,0,1.6-.11c.5,0,1.1,0,1.71,0a6.25,6.25,0,0,0,.94,0,12.15,12.15,0,0,0,1.54.11,4,4,0,0,0,1.11-.11c.55,0,1.27.11,1.88.11a1.76,1.76,0,0,0,.77-.11,19.36,19.36,0,0,1,2.65,0,11.19,11.19,0,0,1,2,0c.22,0,.44,0,.66,0a12.81,12.81,0,0,0,1.49.11c.33,0,.77-.06,1.22-.11h.33a1.46,1.46,0,0,0,1.49-1.61V38.41a2,2,0,0,0,0-.55C25.22,37,24.67,36.31,23.35,36.43Z"/><path d="M65.63,36.87c-1-.17-2.21.33-3.37.44a3.75,3.75,0,0,1-2-.44,1.66,1.66,0,0,1-.88-1.49A4.88,4.88,0,0,1,59.12,33c.05-.83-.34-1.27,0-2.21s-.12-1.82.05-2.87c.17-1.21-.33-2,0-2.87s-.33-1.71.06-2.87A11.7,11.7,0,0,0,59.34,19c0-1,1-1.61,2.31-1.61l2.54.06c1.27-.17,1.93-.77,1.82-1.88.06-.49,0-.82.06-1.38,0-1.38-.61-1.6-1.82-1.87a14.75,14.75,0,0,1-3.09-.06c-1,.11-1.55-1-1.55-1.76a18.74,18.74,0,0,0,0-2.43c0-.66.11-1.82,0-2.54a1.76,1.76,0,0,0-1.87-1.88H55.25c-1.21.06-2,.39-1.93,1.82-.06.78,0,2-.06,2.6a14.66,14.66,0,0,1,.06,2.2c0,1-.5,2.21-1.82,2-.44-.05-.72.17-1.27,0A1.51,1.51,0,0,0,48.41,14v1.55c0,1.1.5,1.87,1.65,1.93a7.81,7.81,0,0,1,1.22,0c1.16,0,1.54,1.27,1.6,2.15,0,1.22-.11,1.55-.06,2.38.06,1-.11,2-.11,2.87,0,1.15-.11,2.15-.05,2.87.16,1-.28,2-.11,2.81a21.77,21.77,0,0,1-.06,3.31,10.55,10.55,0,0,0,.06,2.65,7.08,7.08,0,0,0,.6,2.54,6,6,0,0,0,1.22,1.88,4.5,4.5,0,0,0,1.76,1.21,3.08,3.08,0,0,0,2.1.72,2.17,2.17,0,0,0,.94.22c.39,0,.72-.06,1-.06.05,0,.16.06.22.06H62.1c.27-.06.6-.06,1-.17a5.87,5.87,0,0,0,2.59-.77,1.66,1.66,0,0,0,1.11-1.55,1.27,1.27,0,0,0-.06-.44c0-.11,0-.22,0-.33,0-.44.11-1.1.11-1.65V37.8C66.79,37.25,66.18,36.92,65.63,36.87Z"/><path d="M111.39,38.91c0-1-.44-1.6-1.33-1.66-.66,0-1,.06-1.87.06a5,5,0,0,1-2-.39c-.55-.44-.44-1.43-.44-2.32V31.14H99.11a8.52,8.52,0,0,0,.14,1.26c0,1.32-.06,2.09-.06,3.2v.88a14.29,14.29,0,0,0,.33,3A4.24,4.24,0,0,0,101,41.83a7.17,7.17,0,0,0,2.64,1.05,7.93,7.93,0,0,0,1.94.17h.93c.45,0,1,.05,1.6.05a5.31,5.31,0,0,0,2.16-.33c.6-.11,1.16-.38,1.16-1.71V40.9a1.38,1.38,0,0,0,0-.45c0-.33,0-.66,0-1.16Z"/><path d="M89.58,36.87c-1-.17-2.2.33-3.36.44a3.79,3.79,0,0,1-2-.44,1.7,1.7,0,0,1-.88-1.49A5.12,5.12,0,0,1,83.07,33c.06-.83-.33-1.27,0-2.21s-.11-1.82.06-2.87c.16-1.21-.34-2,0-2.87s-.34-1.71.05-2.87A11.3,11.3,0,0,0,83.29,19c0-1,1-1.61,2.32-1.61l2.54.06c1.27-.17,1.93-.77,1.82-1.88,0-.49,0-.82,0-1.38,0-1.38-.6-1.6-1.82-1.87a14.77,14.77,0,0,1-3.09-.06c-1,.11-1.54-1-1.54-1.76a19,19,0,0,0-.06-2.43c0-.66.11-1.82.06-2.54a1.77,1.77,0,0,0-1.88-1.88H79.21c-1.22.06-2,.39-1.93,1.82-.06.78,0,2-.06,2.6a16.15,16.15,0,0,1,.06,2.2c0,1-.5,2.21-1.83,2-.44-.05-.71.17-1.26,0A1.51,1.51,0,0,0,72.36,14v1.55c0,1.1.5,1.87,1.66,1.93a7.67,7.67,0,0,1,1.21,0c1.16,0,1.55,1.27,1.6,2.15.06,1.22-.11,1.55,0,2.38,0,1-.11,2-.11,2.87,0,1.15-.11,2.15-.06,2.87.17,1-.27,2-.11,2.81a23.09,23.09,0,0,1,0,3.31,10.57,10.57,0,0,0,0,2.65A7.29,7.29,0,0,0,77.11,39a6,6,0,0,0,1.21,1.88,4.53,4.53,0,0,0,1.77,1.21,3.06,3.06,0,0,0,2.1.72,2.17,2.17,0,0,0,.94.22c.38,0,.71-.06,1-.06.06,0,.17.06.23.06h1.65c.28-.06.61-.06,1-.17a5.9,5.9,0,0,0,2.6-.77,1.66,1.66,0,0,0,1.1-1.55,1.51,1.51,0,0,0,0-.44c0-.11-.06-.22-.06-.33,0-.44.11-1.1.11-1.65V37.8C90.74,37.25,90.13,36.92,89.58,36.87Z"/><path d="M40.07,4c0-.11,0-.28-.11-.44A5,5,0,0,1,40,2C40,.77,39.47.44,38.08.17a14.18,14.18,0,0,0-1.6-.12,15.64,15.64,0,0,0-1.71.12h-.33A1.37,1.37,0,0,0,33,1.66v.11a3.43,3.43,0,0,1,.05,1.49A1.48,1.48,0,0,0,33,3.7c0,.33.11.49,0,.71a.78.78,0,0,0-.11.45c0,.33.16.6.11.82.11,1.33.33,1.83,1.76,1.55a9.84,9.84,0,0,0,1.33,0c.61-.06,1.43.06,2,0C39.41,7.45,40,7,40,5.85a1.71,1.71,0,0,0,.11-.66.76.76,0,0,0,0-.33V4.69C40,4.52,40.07,4.36,40.07,4Z"/><path d="M39.63,14.07c.17-1.43-.44-1.93-1.88-1.87a21.26,21.26,0,0,0-2.65,0c-1.6,0-1.71.88-1.87,1.87a16.63,16.63,0,0,0,0,3.31c-.17.67.27,1.33,0,1.88s.11,1.33,0,1.71c-.22.88.16,1.16,0,1.82s.11,1.27,0,1.6c-.33.94.16,1.77-.06,2.93a3.48,3.48,0,0,1,.11,1.88c-.22.88.17,1.76,0,2.15-.33.77.11,1.76-.11,2.54,0,1.32-.11,2.09,0,3.31.11,1.38,0,2.09.06,3.36a1.65,1.65,0,0,0,1.87,1.83c.45,0,1.11-.06,1.77-.06a4.29,4.29,0,0,1,.88.06c1.27-.12,1.88-.61,1.94-1.83V33.89c-.17-1,.11-2.27,0-3.26.16-.94-.06-1.43,0-3.31.05-1-.06-2.1,0-3.31s-.22-2.16,0-3.31c-.12-.94.22-2.16,0-3.32A16.43,16.43,0,0,0,39.63,14.07Z"/><path d="M20.34,62.86a1,1,0,0,0,1,1,.86.86,0,0,0,1-.85c0-.73-1-.94-1.77-1.22-1.65-.59-2.56-1.36-2.56-3a3.26,3.26,0,0,1,3.33-3.17,3.12,3.12,0,0,1,3.33,3.2H22.42a1,1,0,0,0-2-.06c0,.73.89.86,1.73,1.11,1.75.52,2.56,1.5,2.56,3a3.25,3.25,0,0,1-3.31,3.17A3.11,3.11,0,0,1,18,62.86Z"/><path d="M26.73,55.94h6.48v2.12H29.13v1.77H32.9v2.09H29.13v1.76h4.26v2.06H26.73Z"/><path d="M35.26,55.94h2.4v7.74h4.27v2.06H35.26Z"/><path d="M43.36,55.94h6.48v2.12H45.76v1.77h3.77v2.09H45.76v1.76H50v2.06H43.36Z"/><path d="M56.81,55.61a5.45,5.45,0,0,1,4.2,1.8L59.36,59a3.66,3.66,0,0,0-2.55-1.1,3,3,0,0,0,0,5.91,3.65,3.65,0,0,0,2.55-1.09L61,64.27a5.55,5.55,0,0,1-4.15,1.8,5.23,5.23,0,1,1,0-10.46Z"/><path d="M64.41,58.06H62.23V55.94h6.82v2.12H66.83v7.68H64.41Z"/><path d="M70.46,55.94H77v2.12H72.86v1.77h3.78v2.09H72.86v1.76h4.26v2.06H70.46Z"/><path d="M79,55.94h3.41a4.91,4.91,0,1,1,0,9.8H79Zm3.36,7.61a2.72,2.72,0,0,0,0-5.44h-1v5.44Z"/><path d="M98.63,58.78l-.81.8-1.06-1.21L99,55.94h2v9.8H98.63Z"/><path d="M102.48,65.48l2.85-3A3.51,3.51,0,0,1,103,59.2a3.72,3.72,0,0,1,3.81-3.59,3.68,3.68,0,0,1,3.75,3.59,3.54,3.54,0,0,1-1.15,2.62l-1.77,1.78h2.92v2.14h-8.1Zm5.7-6.28a1.32,1.32,0,0,0-1.35-1.32,1.34,1.34,0,1,0,0,2.67A1.33,1.33,0,0,0,108.18,59.2Z"/><path d="M111.78,65.48l2.84-3a3.51,3.51,0,0,1-2.3-3.24,3.72,3.72,0,0,1,3.81-3.59,3.68,3.68,0,0,1,3.75,3.59,3.55,3.55,0,0,1-1.16,2.62L117,63.6h2.92v2.14h-8.1Zm5.7-6.28a1.33,1.33,0,0,0-1.35-1.32,1.34,1.34,0,1,0,0,2.67A1.33,1.33,0,0,0,117.48,59.2Z"/><path d="M122.86,58.78l-.81.8L121,58.37l2.28-2.43h2v9.8h-2.42Z"/></g></g></svg>